<svg width="170" height="150.69532579739084" viewBox="0 0 170 150.69532579739084" class="css-1j8o68f"><defs id="SvgjsDefs2871"><linearGradient id="SvgjsLinearGradient2876"><stop id="SvgjsStop2877" stop-color="#6d7cff" offset="0"></stop><stop id="SvgjsStop2878" stop-color="#ff51ff" offset="1"></stop></linearGradient></defs><g id="SvgjsG2872" featurekey="aMgJeN-0" transform="matrix(1.0224948556195637,0,0,1.0224948556195637,33.8752556344403,-1.9427402012989938)" fill="url(#SvgjsLinearGradient2876)"><rect xmlns="http://www.w3.org/2000/svg" x="47.4" y="1.9" width="5.1" height="5.1"></rect><rect xmlns="http://www.w3.org/2000/svg" x="47.4" y="93.3" width="5.1" height="5.1"></rect><rect xmlns="http://www.w3.org/2000/svg" x="13.9" y="78.7" width="5.1" height="5.1"></rect><rect xmlns="http://www.w3.org/2000/svg" x="79.5" y="78.7" width="5.1" height="5.1"></rect><rect xmlns="http://www.w3.org/2000/svg" x="13.9" y="15.9" width="5.1" height="5.1"></rect><rect xmlns="http://www.w3.org/2000/svg" x="79.5" y="15.9" width="5.1" height="5.1"></rect><rect xmlns="http://www.w3.org/2000/svg" x="1.1" y="47.2" width="5.1" height="5.1"></rect><rect xmlns="http://www.w3.org/2000/svg" x="93.8" y="47.2" width="5.1" height="5.1"></rect><path xmlns="http://www.w3.org/2000/svg" d="M10.4,24.5c-3.8,5.8-6.2,12.2-7.1,19.1l-0.1,0.6h3l0.1-0.5c1-6.7,3.5-13.1,7.3-18.7l0.6-0.8h-3.5L10.4,24.5  z"></path><path xmlns="http://www.w3.org/2000/svg" d="M6.1,55.8L6,55.3H3.1l0.1,0.6c0.9,7.1,3.2,13.6,7,19.6l0.2,0.2h3.5l-0.6-0.8C9.5,69.2,7,62.6,6.1,55.8z"></path><path xmlns="http://www.w3.org/2000/svg" d="M93.7,43.8l0.1,0.5h3l-0.1-0.6c-1-6.9-3.4-13.3-7.1-19.1l-0.2-0.2h-3.5l0.6,0.8  C90.2,30.7,92.7,37.1,93.7,43.8z"></path><path xmlns="http://www.w3.org/2000/svg" d="M93.9,55.3l-0.1,0.5c-0.9,6.8-3.4,13.5-7.2,19.1L86,75.7h3.5l0.2-0.2c3.8-5.9,6.2-12.5,7-19.6l0.1-0.6  L93.9,55.3L93.9,55.3z"></path><path xmlns="http://www.w3.org/2000/svg" d="M74.1,13.2l0.1,0.1h5l-1.3-1C71.6,7.5,64,4.4,56.1,3.4l-0.6-0.1v3L56,6.4C62.5,7.3,68.6,9.5,74.1,13.2z"></path><path xmlns="http://www.w3.org/2000/svg" d="M21.9,12.3l-1.3,1h5l0.1-0.1C31.3,9.5,37.4,7.3,44,6.4l0.5-0.1v-3l-0.6,0.1C35.9,4.4,28.3,7.5,21.9,12.3z"></path><path xmlns="http://www.w3.org/2000/svg" d="M74.6,86.9c-5.6,3.7-12,6.2-18.7,7.1l-0.5,0.1v3L56,97c8.1-1.1,15.8-4.2,22.3-9.2l1.3-1L74.6,86.9  L74.6,86.9z"></path><path xmlns="http://www.w3.org/2000/svg" d="M25.3,86.9l-0.2-0.1h-4.9l1.3,1c6.5,5,14.3,8.1,22.4,9.2l0.6,0.1v-3L44,94C37.3,93.1,30.8,90.6,25.3,86.9z"></path><polygon xmlns="http://www.w3.org/2000/svg" points="36.7,59.6 24.3,49.6 36.8,40.6 39.7,44.7 32.6,49.8 39.8,55.7 "></polygon><polygon xmlns="http://www.w3.org/2000/svg" points="63.2,59.6 60.1,55.7 67.3,49.8 60.2,44.7 63.1,40.6 75.6,49.6 "></polygon><rect xmlns="http://www.w3.org/2000/svg" x="47.7" y="34" transform="matrix(0.9452 0.3264 -0.3264 0.9452 19.1192 -13.6479)" width="5" height="32.4"></rect></g><g id="SvgjsG2873" featurekey="8L6ael-0" transform="matrix(2.112154359074886,0,0,2.112154359074886,-3.414010021368721,108.45223861589311)" fill="#ffffff"><path d="M13.88 5 q0.28 0 0.49 0.21 t0.21 0.49 l0 13.4 q0 0.28 -0.21 0.49 t-0.49 0.21 l-1.76 0 q-0.36 0 -0.58 -0.28 l-9.78 -13.4 q-0.12 -0.16 -0.14 -0.36 t0.07 -0.38 t0.26 -0.28 t0.37 -0.1 l1.76 0 q0.16 0 0.32 0.07 t0.24 0.21 l7.02 9.54 l0 -9.12 q0 -0.28 0.2 -0.49 t0.5 -0.21 l1.52 0 z M3.84 14.7 q0.28 0 0.49 0.2 t0.21 0.5 l0 3.7 q0 0.28 -0.21 0.49 t-0.49 0.21 l-1.52 0 q-0.28 0 -0.49 -0.21 t-0.21 -0.49 l0 -3.7 q0 -0.3 0.21 -0.5 t0.49 -0.2 l1.52 0 z M24.748 17.06 q0.24 0.08 0.38 0.27 t0.14 0.43 l0 1.54 q0 0.32 -0.26 0.54 q-0.2 0.16 -0.44 0.16 q-0.1 0 -0.14 -0.02 q-1.86 -0.36 -3.2 -1.72 q-1.8 -1.84 -1.8 -4.84 l0 -7.7 q0 -0.3 0.21 -0.51 t0.49 -0.21 l1.54 0 q0.3 0 0.51 0.21 t0.21 0.51 l0 7.74 q0 1.9 1.08 2.9 q0.56 0.52 1.28 0.7 z M31.648 5 q0.3 0 0.51 0.21 t0.21 0.51 l0 7.7 q0 3 -1.8 4.84 q-1.34 1.36 -3.2 1.72 q-0.04 0.02 -0.14 0.02 q-0.24 0 -0.44 -0.16 q-0.26 -0.2 -0.26 -0.56 l0 -1.54 q0 -0.22 0.14 -0.41 t0.38 -0.27 q0.76 -0.22 1.28 -0.7 q1.08 -0.96 1.08 -2.9 l0 -7.74 q0 -0.3 0.21 -0.51 t0.51 -0.21 l1.52 0 z M47.776 12.18 q1.04 0.64 1.52 1.84 q0.28 0.64 0.28 1.58 q0 1.46 -0.78 2.45 t-2.28 1.47 q-0.94 0.32 -2.22 0.32 l-6.38 0 q-0.28 0 -0.49 -0.21 t-0.21 -0.49 l0 -1.44 q0 -0.3 0.21 -0.51 t0.49 -0.21 l6.54 0 q1.16 0 1.72 -0.42 q0.48 -0.4 0.48 -1.09 t-0.5 -1.13 q-0.62 -0.54 -1.86 -0.54 l-6.38 0 q-0.28 0 -0.49 -0.21 t-0.21 -0.51 l0 -1.38 q0 -0.28 0.21 -0.49 t0.49 -0.21 l6.02 0 q0.86 0 1.34 -0.3 q0.34 -0.2 0.54 -0.58 q0.14 -0.28 0.14 -0.65 t-0.1 -0.67 q-0.08 -0.24 -0.28 -0.44 q-0.44 -0.5 -1.46 -0.5 l-6.2 0 q-0.28 0 -0.49 -0.21 t-0.21 -0.51 l0 -1.44 q0 -0.28 0.21 -0.49 t0.49 -0.21 l6.02 0 q2.48 0 3.82 1.4 q1.14 1.14 1.14 2.86 q0 1.84 -1.12 2.92 z M63.564 12.42 q0.86 0.54 1.31 1.32 t0.45 1.74 q0 2.26 -1.72 3.46 q-1.16 0.84 -3.14 1.06 l-0.08 0 q-0.28 0 -0.46 -0.18 q-0.24 -0.22 -0.24 -0.52 l0 -1.44 q0 -0.26 0.18 -0.46 t0.44 -0.24 q0.94 -0.1 1.46 -0.44 q0.4 -0.24 0.54 -0.62 q0.08 -0.22 0.08 -0.56 q0 -0.22 -0.08 -0.38 t-0.28 -0.3 q-0.58 -0.4 -1.5 -0.68 l-0.32 -0.1 q-1 -0.28 -1.84 -0.46 q-0.18 -0.04 -0.58 -0.14 l-0.22 -0.06 q-0.72 -0.18 -1.52 -0.5 q-1.18 -0.5 -1.94 -1.26 q-0.88 -0.88 -0.88 -2.32 q0 -1.98 1.52 -3.22 q1.04 -0.88 2.92 -1.12 q0.32 -0.04 0.55 0.18 t0.23 0.52 l0 1.44 q0 0.26 -0.16 0.46 t-0.41 0.23 t-0.51 0.11 q-0.58 0.22 -0.82 0.43 t-0.34 0.43 q-0.1 0.34 -0.1 0.64 q0 0.16 0.18 0.34 q0.28 0.28 0.82 0.5 q0.24 0.1 0.84 0.3 l2.5 0.62 l0.12 0.04 q0.94 0.26 1.36 0.4 q0.94 0.32 1.64 0.78 z M60.224000000000004 7.9 q-0.24 -0.06 -0.39 -0.25 t-0.15 -0.45 l0 -1.46 q0 -0.32 0.26 -0.54 q0.1 -0.1 0.26 -0.13 t0.3 -0.01 q1.76 0.28 2.86 1.2 q1.5 1.24 1.6 3.16 q0.02 0.28 -0.19 0.51 t-0.51 0.23 l-1.56 0 q-0.26 0 -0.46 -0.18 t-0.22 -0.44 q-0.08 -0.52 -0.34 -0.86 q-0.42 -0.5 -1.3 -0.76 q-0.06 0 -0.08 -0.02 l-0.08 0 z M57.884 17.08 q0.24 0.04 0.4 0.24 t0.16 0.44 l0 1.48 q0 0.32 -0.24 0.54 q-0.2 0.16 -0.46 0.16 l-0.1 0 q-1.86 -0.28 -3.06 -1.22 q-1.56 -1.24 -1.76 -3.46 q-0.04 -0.32 0.18 -0.55 t0.52 -0.23 l1.58 0 q0.28 0 0.48 0.19 t0.22 0.47 q0.06 1 0.98 1.54 q0.42 0.24 1.1 0.4 z M82.012 5.380000000000001 q0.1 0.18 0.09 0.38 t-0.13 0.36 l-5.54 8 l0 5.14 q0 0.28 -0.21 0.49 t-0.49 0.21 l-1.54 0 q-0.3 0 -0.51 -0.21 t-0.21 -0.49 l0 -5.86 q0 -0.2 0.14 -0.4 l5.34 -7.7 q0.1 -0.14 0.25 -0.22 t0.33 -0.08 l1.86 0 q0.2 0 0.37 0.1 t0.25 0.28 z M73.592 9.78 q-0.08 0.18 -0.25 0.28 t-0.37 0.1 l-1.86 0 q-0.36 0 -0.6 -0.3 l-2.6 -3.74 q-0.1 -0.16 -0.11 -0.36 t0.07 -0.38 t0.25 -0.28 t0.37 -0.1 l1.88 0 q0.34 0 0.58 0.3 l2.6 3.74 q0.1 0.16 0.11 0.36 t-0.07 0.38 z"></path></g></svg>